<?xml version="1.0" encoding="utf-8"?>
<!-- Generator: Adobe Illustrator 16.0.0, SVG Export Plug-In . SVG Version: 6.00 Build 0)  -->
<!DOCTYPE svg PUBLIC "-//W3C//DTD SVG 1.1//EN" "http://www.w3.org/Graphics/SVG/1.1/DTD/svg11.dtd">
<svg version="1.1" id="Layer_1" xmlns="http://www.w3.org/2000/svg" xmlns:xlink="http://www.w3.org/1999/xlink" x="0px" y="0px"
	 width="1024px" height="1024px" viewBox="0 0 1024 1024" enable-background="new 0 0 1024 1024" xml:space="preserve">
<rect fill="none" width="1024" height="1024"/>
<path d="M1024,100c0-55.229-44.771-100-100-100H100C44.771,0,0,44.771,0,100v824c0,55.229,44.771,100,100,100h824
	c55.229,0,100-44.771,100-100V100z M876.356,456.325L588.634,773.753c-43.044,45.474-105.986,52.733-152.29-0.009L148.586,456.33
	C106.557,383.734,140.635,325,224.731,325h575.48C884.344,325,918.494,383.73,876.356,456.325z"/>
</svg>
